# xmcd CD database file
#
# Track frame offsets:
#	150
#	13110
#	30927
#	57778
#	85757
#	100281
#	123646
#	141475
#	152896
#	199808
#	224840
#	249133
#
# Disc length: 3725 seconds
#
# Revision: 1
# Processed by: cddbd v1.5.1PL2 Copyright (c) Steve Scherf et al.
# Submitted via: CDex 1.51
#
DISCID=a70e8b0c
DTITLE=國際聖經協會 - 聖經-舊約
DYEAR=1900
DGENRE=
TTITLE0=創世紀第16章
TTITLE1=創世紀第17章
TTITLE2=創世紀第18章
TTITLE3=創世紀第19章
TTITLE4=創世紀第20章
TTITLE5=創世紀第21章
TTITLE6=創世紀第22章
TTITLE7=創世紀第23章
TTITLE8=創世紀第24章
TTITLE9=創世紀第25章
TTITLE10=創世紀第26章
TTITLE11=創世紀第27章
EXTD=
EXTT0=
EXTT1=
EXTT2=
EXTT3=
EXTT4=
EXTT5=
EXTT6=
EXTT7=
EXTT8=
EXTT9=
EXTT10=
EXTT11=
PLAYORDER=
